<svg id="svg" version="1.1" xmlns="http://www.w3.org/2000/svg" xmlns:xlink="http://www.w3.org/1999/xlink" width="400" height="400" viewBox="0, 0, 400,400"><g id="svgg"><path id="path0" d="M101.400 86.055 C 90.363 87.676,86.917 88.460,77.800 91.421 C 71.876 93.344,63.673 97.052,56.805 100.910 C 32.570 114.521,12.444 140.756,4.415 169.200 C 4.136 170.190,3.767 171.450,3.596 172.000 C 3.172 173.364,1.827 180.200,1.391 183.200 C 0.294 190.765,-0.104 203.161,0.557 209.200 C 2.037 222.725,4.531 233.290,8.491 242.800 C 8.720 243.350,9.054 244.160,9.234 244.600 C 21.977 275.748,51.451 301.621,84.200 310.409 C 92.287 312.579,96.299 313.314,104.000 314.036 C 109.481 314.550,124.798 314.306,129.200 313.634 C 130.630 313.416,133.060 313.053,134.600 312.828 C 136.933 312.486,142.758 311.109,148.200 309.611 C 159.261 306.568,174.080 299.053,184.000 291.457 C 189.039 287.598,190.644 286.208,195.220 281.742 L 199.841 277.233 192.122 269.522 L 184.404 261.811 180.502 265.651 C 168.681 277.285,151.989 286.915,139.005 289.590 C 138.122 289.772,135.690 290.303,133.600 290.770 C 103.699 297.446,73.039 288.255,48.970 265.400 C 43.560 260.264,36.175 248.880,31.582 238.600 C 25.105 224.103,22.403 202.467,25.238 187.800 C 25.450 186.700,25.812 184.810,26.042 183.600 C 26.468 181.358,27.045 178.995,27.605 177.200 C 27.776 176.650,28.320 174.850,28.813 173.200 C 37.256 144.920,61.252 122.060,92.600 112.431 C 94.014 111.997,98.349 111.155,105.400 109.945 C 109.885 109.175,126.600 109.313,131.000 110.156 C 132.980 110.535,135.500 111.006,136.600 111.202 C 148.394 113.302,165.099 121.142,174.800 129.129 C 176.010 130.126,182.940 136.808,190.200 143.978 C 197.460 151.149,209.050 162.592,215.955 169.408 C 222.861 176.224,232.559 185.827,237.506 190.748 L 246.501 199.697 223.249 222.951 L 199.997 246.205 207.704 253.904 L 215.411 261.603 243.194 233.809 C 258.474 218.523,271.146 205.607,271.354 205.108 C 273.237 200.574,273.242 199.124,271.391 195.017 C 270.934 194.003,250.064 172.755,205.400 127.827 C 199.460 121.852,193.160 115.805,191.400 114.390 C 189.640 112.976,187.930 111.556,187.600 111.236 C 179.796 103.661,160.889 93.776,146.200 89.592 C 140.911 88.086,136.439 87.200,128.123 86.011 C 124.691 85.521,104.816 85.553,101.400 86.055 " stroke="none" fill="#5dacec" fill-rule="evenodd"></path><path id="path1" d="M272.800 86.070 C 264.101 87.095,259.580 87.994,253.000 90.009 C 251.460 90.480,249.660 91.010,249.000 91.187 C 247.717 91.530,246.684 91.877,245.400 92.396 C 244.960 92.574,243.970 92.949,243.200 93.230 C 239.945 94.418,231.873 98.291,227.400 100.812 C 220.286 104.821,211.769 111.346,203.802 118.892 L 200.204 122.299 207.571 129.850 C 211.623 134.002,215.097 137.463,215.291 137.541 C 215.485 137.618,217.479 135.905,219.722 133.734 C 229.206 124.553,239.228 118.007,250.292 113.765 C 251.781 113.194,253.360 112.572,253.800 112.383 C 256.460 111.243,264.578 109.100,268.600 108.476 C 270.140 108.238,272.591 107.853,274.046 107.621 C 277.310 107.102,292.676 107.065,295.633 107.570 C 296.825 107.773,299.240 108.149,301.000 108.404 C 313.878 110.275,333.699 118.961,341.815 126.292 C 342.247 126.681,343.590 127.800,344.800 128.779 C 358.910 140.187,369.349 158.433,373.991 179.800 C 376.829 192.862,376.170 210.257,372.369 222.600 C 363.752 250.588,343.242 274.020,319.400 283.117 C 314.966 284.809,313.487 285.345,311.000 286.161 C 306.435 287.658,303.704 288.307,298.200 289.203 C 296.660 289.453,294.425 289.825,293.233 290.029 C 290.407 290.513,273.962 290.509,271.167 290.024 C 269.975 289.817,267.650 289.431,266.000 289.167 C 263.282 288.730,261.005 288.207,257.300 287.165 C 256.585 286.964,255.415 286.641,254.700 286.447 C 245.650 283.993,233.288 277.240,223.800 269.567 C 219.717 266.265,154.000 200.814,154.000 200.049 C 154.000 199.694,164.304 189.097,176.899 176.501 L 199.797 153.600 192.099 145.901 L 184.400 138.202 157.182 165.401 C 142.213 180.361,129.568 193.230,129.082 194.000 C 127.013 197.284,126.700 200.234,128.041 203.818 C 128.831 205.928,131.279 208.465,168.141 245.357 C 213.193 290.446,216.280 293.210,229.400 300.203 C 231.380 301.259,233.720 302.511,234.600 302.987 C 235.480 303.462,237.010 304.170,238.000 304.559 C 238.990 304.948,240.340 305.501,241.000 305.789 C 243.714 306.973,251.205 309.594,254.300 310.443 C 257.574 311.341,258.786 311.635,261.400 312.165 C 271.920 314.296,288.260 315.179,295.754 314.022 C 297.099 313.814,299.640 313.444,301.400 313.198 C 306.816 312.444,310.081 311.727,317.800 309.597 C 322.384 308.333,332.096 304.533,336.000 302.477 C 343.249 298.658,347.903 295.865,351.850 292.965 C 365.425 282.991,377.912 269.034,385.100 255.800 C 387.674 251.062,392.000 241.898,392.000 241.185 C 392.000 240.967,392.176 240.477,392.391 240.095 C 392.606 239.713,393.253 237.960,393.829 236.200 C 400.016 217.302,401.325 198.540,397.807 179.200 C 397.320 176.526,396.053 171.005,395.603 169.600 C 395.427 169.050,394.892 167.250,394.414 165.600 C 393.460 162.308,392.318 159.121,391.154 156.504 C 390.739 155.572,390.400 154.727,390.400 154.628 C 390.400 154.144,386.246 145.795,384.506 142.783 C 380.838 136.433,377.328 131.484,371.609 124.600 C 362.367 113.475,343.526 99.995,329.200 94.259 C 328.210 93.862,327.040 93.389,326.600 93.206 C 324.570 92.364,322.094 91.469,321.000 91.182 C 320.340 91.008,318.540 90.480,317.000 90.009 C 310.212 87.930,306.020 87.113,296.555 86.021 C 292.285 85.528,277.132 85.559,272.800 86.070 " stroke="none" fill="#6c356c" fill-rule="evenodd"></path><path id="path2" d="M0.053 93.900 C 0.085 152.358,0.244 186.970,0.472 185.600 C 1.572 179.001,2.574 173.866,3.281 171.200 C 13.983 130.855,43.710 100.614,84.200 88.880 C 95.053 85.735,108.594 84.442,122.700 85.205 C 130.975 85.653,139.474 87.003,145.400 88.811 C 146.720 89.214,149.240 89.983,151.000 90.520 C 162.585 94.058,176.256 101.463,186.511 109.756 C 188.717 111.540,190.990 113.343,191.561 113.763 C 192.132 114.183,194.259 116.154,196.288 118.143 L 199.975 121.759 202.888 118.972 C 215.622 106.782,227.512 98.900,241.713 93.235 C 310.615 65.746,387.596 109.108,398.767 181.701 C 399.215 184.615,399.651 187.450,399.736 188.000 C 399.821 188.550,399.916 146.475,399.946 94.500 L 400.000 0.000 200.000 0.000 L 0.000 0.000 0.053 93.900 M277.200 107.982 C 255.094 109.862,233.980 119.799,218.607 135.558 L 216.215 138.010 230.466 152.305 C 276.818 198.799,274.686 196.214,272.618 203.430 L 271.939 205.800 244.170 233.607 C 228.896 248.900,216.400 261.627,216.400 261.889 C 216.400 262.640,223.661 268.910,229.101 272.858 C 253.817 290.792,287.111 294.978,316.070 283.794 C 366.119 264.465,389.068 206.742,366.162 157.800 C 350.752 124.875,314.866 104.779,277.200 107.982 M110.214 110.039 C 107.582 110.216,104.612 110.536,103.614 110.750 C 102.616 110.964,100.630 111.348,99.200 111.604 C 56.884 119.162,24.781 158.071,24.803 201.775 C 24.829 253.035,63.818 292.067,114.973 292.042 C 124.654 292.038,127.001 291.734,140.000 288.805 C 152.098 286.078,167.751 277.063,178.928 266.386 L 183.656 261.869 156.247 234.435 C 125.312 203.470,126.570 204.967,126.874 199.472 C 127.141 194.660,126.330 195.595,156.143 165.714 L 183.765 138.027 182.782 136.967 C 165.841 118.681,137.577 108.193,110.214 110.039 M177.087 177.118 L 154.200 199.996 176.799 222.598 C 189.228 235.029,199.669 245.200,200.000 245.200 C 200.588 245.200,245.600 200.487,245.600 199.902 C 245.600 199.740,235.475 189.542,223.100 177.240 C 210.725 164.938,200.459 154.731,200.287 154.557 C 200.115 154.383,189.675 164.536,177.087 177.118 M0.043 305.700 L 0.000 400.000 200.000 400.000 L 400.000 400.000 399.946 305.900 C 399.916 254.145,399.818 212.250,399.728 212.800 C 397.755 224.924,396.636 229.728,394.019 237.303 C 366.631 316.593,267.631 340.769,205.453 283.352 C 202.623 280.739,200.140 278.537,199.937 278.461 C 199.733 278.385,197.459 280.365,194.883 282.861 C 172.953 304.116,146.234 314.621,114.200 314.586 C 99.884 314.570,96.468 314.196,86.200 311.520 C 41.722 299.928,7.651 262.438,1.208 218.000 C 0.937 216.130,0.573 213.880,0.400 213.000 C 0.227 212.120,0.066 253.835,0.043 305.700 " stroke="none" fill="#f5f5f5" fill-rule="evenodd"></path><path id="path3" d="M105.925 85.239 C 92.218 85.988,78.239 89.754,64.547 96.386 C 31.683 112.306,7.948 143.416,1.669 178.800 C 0.265 186.714,-0.001 188.634,0.028 190.646 C 0.065 193.175,0.731 191.849,0.772 189.165 C 0.825 185.715,2.563 175.703,3.996 170.600 C 4.243 169.720,4.595 168.460,4.779 167.800 C 8.892 153.028,17.239 137.738,28.325 124.670 C 35.007 116.793,48.360 105.653,56.805 100.910 C 63.673 97.052,71.876 93.344,77.800 91.421 C 86.020 88.751,88.873 88.048,96.400 86.840 C 103.184 85.751,105.443 85.600,115.000 85.600 C 124.551 85.600,126.779 85.748,133.600 86.838 C 151.817 89.747,167.812 96.546,183.400 108.006 C 185.380 109.462,187.270 110.915,187.600 111.236 C 187.930 111.556,189.550 112.927,191.200 114.283 C 192.850 115.638,195.456 117.929,196.992 119.374 C 198.527 120.818,199.873 122.000,199.982 122.000 C 200.351 122.000,193.815 115.525,192.166 114.257 C 191.267 113.566,188.725 111.540,186.516 109.756 C 176.234 101.451,162.580 94.056,151.000 90.520 C 143.971 88.374,142.925 88.076,141.000 87.669 C 134.054 86.199,129.349 85.557,123.000 85.209 C 115.066 84.775,114.405 84.776,105.925 85.239 M274.100 85.476 C 274.485 85.576,275.115 85.576,275.500 85.476 C 275.885 85.375,275.570 85.293,274.800 85.293 C 274.030 85.293,273.715 85.375,274.100 85.476 M294.500 85.476 C 294.885 85.576,295.515 85.576,295.900 85.476 C 296.285 85.375,295.970 85.293,295.200 85.293 C 294.430 85.293,294.115 85.375,294.500 85.476 M109.800 109.601 C 107.380 109.783,104.410 110.113,103.200 110.334 C 101.990 110.555,99.830 110.931,98.400 111.169 C 95.971 111.575,95.252 111.740,91.600 112.737 C 63.059 120.524,37.067 145.554,28.813 173.200 C 28.320 174.850,27.776 176.650,27.605 177.200 C 27.045 178.995,26.468 181.358,26.042 183.600 C 25.812 184.810,25.450 186.700,25.238 187.800 C 22.403 202.467,25.105 224.103,31.582 238.600 C 36.175 248.880,43.560 260.264,48.970 265.400 C 63.838 279.518,76.945 286.565,96.200 290.795 C 108.200 293.431,121.721 293.422,133.600 290.770 C 135.690 290.303,138.122 289.772,139.005 289.590 C 152.085 286.895,169.810 276.575,181.195 265.028 L 184.190 261.990 156.795 234.695 L 129.401 207.400 156.531 234.632 L 183.661 261.864 178.931 266.383 C 167.751 277.064,152.099 286.078,140.000 288.805 C 127.001 291.734,124.654 292.038,114.973 292.042 C 63.818 292.067,24.829 253.035,24.803 201.775 C 24.781 158.077,56.936 119.106,99.200 111.607 C 100.630 111.353,102.551 110.979,103.469 110.775 C 107.276 109.929,119.245 109.479,124.600 109.980 C 146.845 112.061,164.834 120.236,181.800 135.974 L 184.200 138.200 181.600 135.472 C 170.050 123.355,152.109 113.978,134.400 110.802 C 132.970 110.546,130.937 110.170,129.883 109.968 C 127.113 109.438,114.940 109.215,109.800 109.601 M368.400 120.525 C 368.400 120.594,368.985 121.179,369.700 121.825 L 371.000 123.000 369.825 121.700 C 368.730 120.488,368.400 120.216,368.400 120.525 M216.019 138.233 C 216.009 138.471,228.340 151.071,243.423 166.233 C 258.506 181.395,271.088 194.340,271.383 195.000 C 272.315 197.079,272.800 198.874,272.800 200.241 C 272.800 201.495,272.584 202.210,271.362 205.000 C 271.073 205.660,258.498 218.530,243.418 233.599 C 228.338 248.668,216.000 261.184,216.000 261.411 C 216.000 261.638,228.586 249.219,243.969 233.812 L 271.937 205.800 272.617 203.430 C 273.435 200.579,273.221 197.516,272.033 195.082 C 271.173 193.322,216.057 137.383,216.019 138.233 M222.900 176.947 C 235.385 189.411,245.600 199.743,245.600 199.906 C 245.600 200.352,200.694 245.080,200.000 245.325 C 199.468 245.513,199.468 245.540,200.001 245.568 C 200.332 245.586,210.934 235.268,223.561 222.639 L 246.518 199.679 225.559 178.911 C 214.032 167.489,203.610 157.275,202.400 156.214 C 201.190 155.153,210.415 164.483,222.900 176.947 M374.901 191.800 C 374.905 192.680,374.987 192.993,375.083 192.495 C 375.179 191.998,375.175 191.278,375.075 190.895 C 374.975 190.513,374.896 190.920,374.901 191.800 M374.901 204.600 C 374.905 205.480,374.987 205.793,375.083 205.295 C 375.179 204.798,375.175 204.078,375.075 203.695 C 374.975 203.313,374.896 203.720,374.901 204.600 M0.006 208.633 C 0.003 209.752,0.169 211.642,0.376 212.833 C 0.583 214.025,0.957 216.350,1.206 218.000 C 7.979 262.847,41.667 299.913,86.200 311.520 C 96.468 314.196,99.884 314.570,114.200 314.586 C 146.211 314.621,172.955 304.113,194.843 282.900 C 200.208 277.701,199.653 277.918,202.001 280.100 C 203.207 281.220,203.099 281.063,201.685 279.637 L 199.539 277.474 195.070 281.869 C 182.074 294.648,164.257 305.194,148.200 309.611 C 142.758 311.109,136.933 312.486,134.600 312.828 C 133.060 313.053,130.630 313.416,129.200 313.634 C 124.798 314.306,109.481 314.550,104.000 314.036 C 96.299 313.314,92.287 312.579,84.200 310.409 C 51.451 301.621,21.977 275.748,9.234 244.600 C 9.054 244.160,8.720 243.350,8.491 242.800 C 5.824 236.395,3.164 226.974,1.997 219.800 C 1.747 218.260,1.375 216.025,1.171 214.833 C 0.967 213.642,0.797 211.572,0.794 210.233 C 0.791 208.895,0.613 207.530,0.400 207.200 C 0.122 206.769,0.011 207.173,0.006 208.633 M363.578 283.900 L 362.200 285.400 363.700 284.022 C 364.525 283.263,365.200 282.588,365.200 282.522 C 365.200 282.216,364.862 282.504,363.578 283.900 M273.700 314.676 C 274.085 314.776,274.715 314.776,275.100 314.676 C 275.485 314.575,275.170 314.493,274.400 314.493 C 273.630 314.493,273.315 314.575,273.700 314.676 " stroke="none" fill="#bbdbf5" fill-rule="evenodd"></path><path id="path4" d="M280.523 85.499 C 283.120 85.569,287.260 85.568,289.723 85.498 C 292.185 85.428,290.060 85.371,285.000 85.372 C 279.940 85.372,277.925 85.429,280.523 85.499 M268.800 86.029 C 260.910 87.234,258.484 87.781,251.000 90.045 C 239.879 93.408,226.892 99.775,218.200 106.124 C 211.838 110.771,199.508 121.658,200.036 122.161 C 200.126 122.247,201.820 120.780,203.800 118.901 C 211.722 111.382,220.271 104.829,227.400 100.812 C 231.873 98.291,239.945 94.418,243.200 93.230 C 243.970 92.949,244.960 92.574,245.400 92.396 C 246.684 91.877,247.717 91.530,249.000 91.187 C 249.660 91.010,251.460 90.480,253.000 90.009 C 259.580 87.994,264.101 87.095,272.800 86.070 L 275.800 85.716 273.400 85.705 C 272.080 85.699,270.010 85.845,268.800 86.029 M297.200 86.070 C 305.899 87.095,310.420 87.994,317.000 90.009 C 318.540 90.480,320.340 91.008,321.000 91.182 C 322.094 91.469,324.570 92.364,326.600 93.206 C 327.040 93.389,328.210 93.862,329.200 94.259 C 343.526 99.995,362.367 113.475,371.609 124.600 C 377.328 131.484,380.838 136.433,384.506 142.783 C 386.246 145.795,390.400 154.144,390.400 154.628 C 390.400 154.727,390.739 155.572,391.154 156.504 C 392.318 159.121,393.460 162.308,394.414 165.600 C 394.892 167.250,395.427 169.050,395.603 169.600 C 395.916 170.576,396.499 172.976,397.208 176.200 C 397.401 177.080,397.746 178.970,397.975 180.400 C 398.953 186.508,399.101 187.149,399.153 185.520 C 399.179 184.706,399.034 183.176,398.832 182.120 C 398.630 181.064,398.247 179.030,397.981 177.600 C 390.316 136.377,357.662 100.707,317.400 89.578 C 316.740 89.395,314.850 88.867,313.200 88.405 C 307.964 86.936,299.322 85.554,296.030 85.658 C 294.530 85.706,294.741 85.780,297.200 86.070 M273.400 107.681 C 272.080 107.881,270.280 108.207,269.400 108.405 C 267.586 108.813,267.545 108.815,277.400 107.966 C 327.265 103.667,368.172 137.293,374.763 188.000 L 375.101 190.600 375.151 188.331 C 375.178 187.082,375.008 185.102,374.774 183.931 C 374.540 182.759,374.151 180.810,373.911 179.600 C 369.912 159.476,358.823 140.116,344.800 128.779 C 343.590 127.800,342.247 126.681,341.815 126.292 C 333.699 118.961,313.878 110.275,301.000 108.404 C 299.240 108.149,296.825 107.773,295.633 107.570 C 292.927 107.108,276.636 107.189,273.400 107.681 M262.600 109.654 C 258.964 110.650,254.812 111.935,253.800 112.377 C 253.360 112.569,251.781 113.194,250.292 113.765 C 242.361 116.806,233.709 121.818,226.800 127.374 C 223.124 130.330,215.515 137.648,215.810 137.944 C 215.929 138.062,217.685 136.522,219.713 134.521 C 227.824 126.517,236.313 120.510,245.121 116.541 C 246.815 115.778,248.560 114.991,249.000 114.793 C 251.382 113.720,256.729 111.903,260.600 110.851 C 268.630 108.668,267.980 108.881,266.600 108.884 C 265.940 108.885,264.140 109.232,262.600 109.654 M156.321 165.513 C 129.624 192.257,127.146 194.946,127.227 197.084 C 127.247 197.613,127.364 197.539,127.675 196.800 C 127.906 196.250,128.290 195.350,128.526 194.800 C 128.763 194.250,141.378 181.341,156.559 166.113 C 171.739 150.886,184.070 138.337,183.960 138.227 C 183.850 138.117,171.412 150.396,156.321 165.513 M176.699 176.701 C 164.214 189.187,154.000 199.673,154.000 200.003 C 154.000 200.661,199.153 246.000,199.809 246.000 C 200.032 246.000,189.861 235.650,177.207 223.000 L 154.200 200.000 177.207 177.000 C 189.861 164.350,200.031 154.000,199.806 154.000 C 199.581 154.000,189.183 164.216,176.699 176.701 M399.275 190.000 C 399.265 191.650,399.411 193.360,399.600 193.800 C 400.039 194.821,400.039 189.925,399.600 188.200 C 399.377 187.324,399.289 187.810,399.275 190.000 M375.314 198.200 C 375.315 205.310,375.340 205.564,375.696 202.139 C 375.937 199.820,375.937 197.033,375.695 194.539 C 375.329 190.753,375.314 190.896,375.314 198.200 M127.001 200.729 C 127.120 202.941,127.402 204.068,128.154 205.329 C 129.091 206.902,184.400 262.534,184.400 261.904 C 184.400 261.742,171.959 249.163,156.753 233.951 C 127.025 204.208,127.788 205.079,127.155 200.200 C 126.846 197.818,126.845 197.822,127.001 200.729 M374.659 208.600 C 370.240 246.485,343.312 276.914,304.800 287.542 C 303.679 287.851,303.594 287.935,304.372 287.964 C 304.906 287.984,305.896 287.820,306.572 287.600 C 313.912 285.210,313.950 285.196,319.400 283.117 C 343.242 274.020,363.752 250.588,372.369 222.600 C 373.687 218.320,375.334 209.139,375.132 207.200 C 375.021 206.141,374.906 206.481,374.659 208.600 M399.503 207.600 C 399.342 208.150,399.208 209.536,399.205 210.680 C 399.202 211.824,399.038 213.624,398.841 214.680 C 398.643 215.736,398.274 217.860,398.020 219.400 C 396.983 225.695,393.712 237.708,392.386 240.095 C 392.174 240.477,392.000 240.967,392.000 241.185 C 392.000 241.898,387.674 251.062,385.100 255.800 C 377.912 269.034,365.425 282.991,351.850 292.965 C 347.903 295.865,343.249 298.658,336.000 302.477 C 332.096 304.533,322.384 308.333,317.800 309.597 C 310.150 311.707,306.806 312.445,301.600 313.170 C 295.318 314.046,294.077 314.290,295.635 314.347 C 298.635 314.457,309.427 312.512,315.600 310.748 C 359.691 298.150,390.802 263.525,398.755 218.200 C 399.939 211.454,400.436 204.401,399.503 207.600 M215.917 262.244 C 216.787 263.870,224.080 270.049,230.600 274.684 C 236.829 279.111,248.438 284.766,254.800 286.470 C 255.570 286.676,256.740 286.999,257.400 287.188 C 260.796 288.158,263.287 288.731,266.000 289.167 C 267.650 289.431,269.975 289.817,271.167 290.024 C 273.977 290.512,290.423 290.512,293.233 290.024 C 294.425 289.817,296.750 289.438,298.400 289.181 C 301.880 288.639,304.449 287.878,301.800 288.173 C 300.920 288.271,298.490 288.658,296.400 289.031 C 291.464 289.915,273.736 290.071,269.200 289.271 C 261.700 287.949,259.528 287.420,253.000 285.329 C 249.420 284.182,249.226 284.101,242.800 281.094 C 234.805 277.353,226.070 271.345,219.033 264.747 C 217.071 262.908,215.669 261.781,215.917 262.244 M204.786 282.556 C 218.918 296.220,235.050 305.404,255.000 311.144 C 260.721 312.790,269.939 314.409,273.200 314.339 C 275.356 314.294,275.339 314.286,272.400 313.948 C 267.663 313.403,260.610 312.138,257.200 311.221 C 256.430 311.014,255.170 310.674,254.400 310.466 C 251.300 309.626,243.781 307.002,241.000 305.789 C 240.340 305.501,238.990 304.948,238.000 304.559 C 237.010 304.170,235.480 303.462,234.600 302.987 C 233.720 302.511,231.380 301.259,229.400 300.203 C 221.418 295.949,210.858 288.003,204.208 281.248 C 202.233 279.242,200.401 277.600,200.138 277.600 C 199.875 277.600,201.967 279.830,204.786 282.556 M280.100 314.699 C 282.685 314.768,286.915 314.768,289.500 314.699 C 292.085 314.629,289.970 314.572,284.800 314.572 C 279.630 314.572,277.515 314.629,280.100 314.699 " stroke="none" fill="#c7afc7" fill-rule="evenodd"></path></g></svg>